<svg xmlns="http://www.w3.org/2000/svg" xmlns:xlink="http://www.w3.org/1999/xlink" width="127" height="112" viewBox="0 0 127 112"><rect width="100%" height="100%" fill="#DDDDDD"/><path d="M27.49 61.19L29.96 61.19L29.96 62.94L22.36 62.94L22.36 61.19L25.14 61.19L25.14 53.18Q25.14 52.70 25.17 52.20L25.17 52.20L23.20 53.85Q23.03 53.99 22.86 54.02Q22.69 54.05 22.55 54.02Q22.40 54.00 22.28 53.92Q22.17 53.85 22.11 53.77L22.11 53.77L21.37 52.75L25.56 49.19L27.49 49.19L27.49 61.19ZM36.94 60.76L40.47 60.76Q40.85 60.76 41.07 60.97Q41.29 61.19 41.29 61.54L41.29 61.54L41.29 62.94L31.87 62.94L31.87 62.17Q31.87 61.93 31.97 61.67Q32.07 61.41 32.29 61.20L32.29 61.20L36.46 57.02Q36.98 56.48 37.39 56.00Q37.81 55.52 38.08 55.04Q38.36 54.57 38.51 54.08Q38.65 53.59 38.65 53.05L38.65 53.05Q38.65 52.55 38.51 52.18Q38.37 51.80 38.11 51.54Q37.85 51.29 37.48 51.16Q37.11 51.03 36.66 51.03L36.66 51.03Q36.24 51.03 35.88 51.15Q35.53 51.27 35.25 51.48Q34.98 51.70 34.79 51.98Q34.60 52.27 34.50 52.61L34.50 52.61Q34.34 53.05 34.08 53.19Q33.83 53.33 33.34 53.25L33.34 53.25L32.11 53.04Q32.25 52.05 32.66 51.30Q33.07 50.56 33.68 50.06Q34.29 49.56 35.09 49.31Q35.88 49.06 36.79 49.06L36.79 49.06Q37.74 49.06 38.53 49.34Q39.32 49.62 39.88 50.13Q40.44 50.64 40.75 51.36Q41.07 52.09 41.07 52.97L41.07 52.97Q41.07 53.73 40.84 54.38Q40.62 55.02 40.24 55.61Q39.87 56.20 39.37 56.75Q38.86 57.30 38.31 57.87L38.31 57.87L35.21 61.04Q35.66 60.90 36.10 60.83Q36.54 60.76 36.94 60.76L36.94 60.76ZM43.05 49.21L52.54 49.21L52.54 50.22Q52.54 50.68 52.45 50.96Q52.35 51.24 52.26 51.43L52.26 51.43L47.05 62.15Q46.89 62.48 46.59 62.71Q46.30 62.94 45.81 62.94L45.81 62.94L44.11 62.94L49.42 52.45Q49.60 52.12 49.77 51.85Q49.95 51.58 50.17 51.34L50.17 51.34L43.59 51.34Q43.37 51.34 43.21 51.17Q43.05 51.01 43.05 50.79L43.05 50.79L43.05 49.21ZM67.80 59.80L66.55 61.03L63.33 57.81L60.08 61.04L58.84 59.82L62.09 56.56L58.99 53.46L60.23 52.23L63.32 55.33L66.40 52.25L67.66 53.48L64.57 56.57L67.80 59.80ZM80.80 61.19L83.27 61.19L83.27 62.94L75.67 62.94L75.67 61.19L78.46 61.19L78.46 53.18Q78.46 52.70 78.49 52.20L78.49 52.20L76.51 53.85Q76.34 53.99 76.17 54.02Q76.01 54.05 75.86 54.02Q75.71 54.00 75.60 53.92Q75.48 53.85 75.43 53.77L75.43 53.77L74.69 52.75L78.88 49.19L80.80 49.19L80.80 61.19ZM91.82 61.19L94.29 61.19L94.29 62.94L86.69 62.94L86.69 61.19L89.48 61.19L89.48 53.18Q89.48 52.70 89.51 52.20L89.51 52.20L87.53 53.85Q87.36 53.99 87.19 54.02Q87.03 54.05 86.88 54.02Q86.73 54.00 86.62 53.92Q86.50 53.85 86.45 53.77L86.45 53.77L85.71 52.75L89.90 49.19L91.82 49.19L91.82 61.19ZM101.28 60.76L104.80 60.76Q105.18 60.76 105.40 60.97Q105.63 61.19 105.63 61.54L105.63 61.54L105.63 62.94L96.20 62.94L96.20 62.17Q96.20 61.93 96.30 61.67Q96.40 61.41 96.62 61.20L96.62 61.20L100.79 57.02Q101.31 56.48 101.73 56.00Q102.14 55.52 102.42 55.04Q102.69 54.57 102.84 54.08Q102.99 53.59 102.99 53.05L102.99 53.05Q102.99 52.55 102.84 52.18Q102.70 51.80 102.44 51.54Q102.18 51.29 101.81 51.16Q101.45 51.03 100.99 51.03L100.99 51.03Q100.57 51.03 100.22 51.15Q99.86 51.27 99.59 51.48Q99.31 51.70 99.12 51.98Q98.93 52.27 98.84 52.61L98.84 52.61Q98.67 53.05 98.42 53.19Q98.16 53.33 97.68 53.25L97.68 53.25L96.44 53.04Q96.58 52.05 96.99 51.30Q97.40 50.56 98.01 50.06Q98.63 49.56 99.42 49.31Q100.21 49.06 101.12 49.06L101.12 49.06Q102.07 49.06 102.86 49.34Q103.65 49.62 104.21 50.13Q104.77 50.64 105.09 51.36Q105.40 52.09 105.40 52.97L105.40 52.97Q105.40 53.73 105.18 54.38Q104.95 55.02 104.58 55.61Q104.20 56.20 103.70 56.75Q103.20 57.30 102.64 57.87L102.64 57.87L99.55 61.04Q99.99 60.90 100.44 60.83Q100.88 60.76 101.28 60.76L101.28 60.76Z" fill="#999999"/></svg>