<svg xmlns="http://www.w3.org/2000/svg" xmlns:xlink="http://www.w3.org/1999/xlink" width="144" height="128" viewBox="0 0 144 128"><rect width="100%" height="100%" fill="#DDDDDD"/><path d="M32.13 69.65L34.86 69.65L34.86 71.59L26.46 71.59L26.46 69.65L29.53 69.65L29.53 60.80Q29.53 60.27 29.56 59.72L29.56 59.72L27.38 61.54Q27.19 61.69 27.01 61.73Q26.82 61.76 26.66 61.73Q26.50 61.70 26.37 61.62Q26.25 61.54 26.18 61.45L26.18 61.45L25.36 60.32L29.99 56.39L32.13 56.39L32.13 69.65ZM39.02 65.87L43.64 65.87L43.64 60.90Q43.64 60.20 43.74 59.35L43.74 59.35L39.02 65.87ZM45.90 65.87L47.81 65.87L47.81 67.37Q47.81 67.58 47.68 67.73Q47.54 67.88 47.29 67.88L47.29 67.88L45.90 67.88L45.90 71.59L43.64 71.59L43.64 67.88L37.24 67.88Q36.98 67.88 36.78 67.72Q36.58 67.56 36.53 67.32L36.53 67.32L36.25 66.01L43.45 56.40L45.90 56.40L45.90 65.87ZM51.20 65.87L55.82 65.87L55.82 60.90Q55.82 60.20 55.92 59.35L55.92 59.35L51.20 65.87ZM58.08 65.87L59.99 65.87L59.99 67.37Q59.99 67.58 59.86 67.73Q59.72 67.88 59.47 67.88L59.47 67.88L58.08 67.88L58.08 71.59L55.82 71.59L55.82 67.88L49.42 67.88Q49.16 67.88 48.96 67.72Q48.76 67.56 48.71 67.32L48.71 67.32L48.43 66.01L55.63 56.40L58.08 56.40L58.08 65.87ZM76.68 68.12L75.30 69.47L71.74 65.91L68.15 69.49L66.78 68.14L70.37 64.54L66.94 61.11L68.31 59.75L71.73 63.17L75.13 59.77L76.52 61.13L73.11 64.55L76.68 68.12ZM91.05 69.65L93.78 69.65L93.78 71.59L85.38 71.59L85.38 69.65L88.46 69.65L88.46 60.80Q88.46 60.27 88.49 59.72L88.49 59.72L86.31 61.54Q86.12 61.69 85.93 61.73Q85.75 61.76 85.59 61.73Q85.42 61.70 85.30 61.62Q85.17 61.54 85.11 61.45L85.11 61.45L84.29 60.32L88.92 56.39L91.05 56.39L91.05 69.65ZM101.50 69.18L105.40 69.18Q105.82 69.18 106.06 69.41Q106.31 69.65 106.31 70.04L106.31 70.04L106.31 71.59L95.89 71.59L95.89 70.73Q95.89 70.47 96.00 70.18Q96.11 69.89 96.35 69.66L96.35 69.66L100.96 65.04Q101.54 64.45 102.00 63.92Q102.46 63.38 102.76 62.86Q103.06 62.33 103.23 61.79Q103.39 61.25 103.39 60.65L103.39 60.65Q103.39 60.10 103.23 59.69Q103.07 59.27 102.79 58.99Q102.50 58.71 102.09 58.57Q101.69 58.42 101.18 58.42L101.18 58.42Q100.72 58.42 100.33 58.56Q99.94 58.69 99.63 58.92Q99.33 59.16 99.12 59.47Q98.91 59.79 98.80 60.17L98.80 60.17Q98.62 60.65 98.34 60.81Q98.06 60.97 97.52 60.88L97.52 60.88L96.16 60.64Q96.31 59.55 96.76 58.72Q97.22 57.90 97.89 57.35Q98.57 56.80 99.45 56.52Q100.32 56.24 101.33 56.24L101.33 56.24Q102.38 56.24 103.25 56.55Q104.12 56.86 104.74 57.43Q105.36 57.99 105.71 58.79Q106.06 59.59 106.06 60.57L106.06 60.57Q106.06 61.41 105.81 62.12Q105.56 62.83 105.15 63.49Q104.73 64.14 104.18 64.75Q103.62 65.35 103.01 65.98L103.01 65.98L99.59 69.48Q100.08 69.33 100.57 69.26Q101.06 69.18 101.50 69.18L101.50 69.18ZM113.36 69.73L113.36 69.73Q114.01 69.73 114.49 69.55Q114.97 69.37 115.30 69.04Q115.63 68.71 115.80 68.26Q115.97 67.81 115.97 67.29L115.97 67.29Q115.97 66.04 115.28 65.40Q114.58 64.76 113.36 64.76L113.36 64.76Q112.15 64.76 111.45 65.40Q110.76 66.04 110.76 67.29L110.76 67.29Q110.76 67.81 110.93 68.26Q111.10 68.71 111.43 69.04Q111.76 69.37 112.24 69.55Q112.72 69.73 113.36 69.73ZM113.36 58.19L113.36 58.19Q112.79 58.19 112.37 58.37Q111.95 58.55 111.67 58.85Q111.39 59.15 111.26 59.54Q111.13 59.93 111.13 60.36L111.13 60.36Q111.13 60.81 111.24 61.23Q111.35 61.66 111.61 61.99Q111.87 62.32 112.30 62.52Q112.73 62.72 113.36 62.72L113.36 62.72Q113.99 62.72 114.43 62.52Q114.86 62.32 115.12 61.99Q115.38 61.66 115.49 61.23Q115.60 60.81 115.60 60.36L115.60 60.36Q115.60 59.93 115.46 59.54Q115.33 59.15 115.06 58.85Q114.78 58.55 114.36 58.37Q113.94 58.19 113.36 58.19ZM115.93 63.67L115.93 63.67Q117.31 64.13 117.97 65.06Q118.64 65.98 118.64 67.33L118.64 67.33Q118.64 68.34 118.25 69.16Q117.87 69.97 117.18 70.55Q116.48 71.13 115.51 71.44Q114.54 71.76 113.36 71.76L113.36 71.76Q112.19 71.76 111.22 71.44Q110.25 71.13 109.55 70.55Q108.86 69.97 108.48 69.16Q108.09 68.34 108.09 67.33L108.09 67.33Q108.09 65.98 108.76 65.06Q109.42 64.13 110.80 63.67L110.80 63.67Q109.70 63.21 109.15 62.36Q108.60 61.51 108.60 60.31L108.60 60.31Q108.60 59.45 108.95 58.71Q109.30 57.96 109.93 57.41Q110.56 56.86 111.44 56.55Q112.31 56.24 113.36 56.24L113.36 56.24Q114.41 56.24 115.29 56.55Q116.17 56.86 116.80 57.41Q117.43 57.96 117.78 58.71Q118.13 59.45 118.13 60.31L118.13 60.31Q118.13 61.51 117.58 62.36Q117.03 63.21 115.93 63.67Z" fill="#999999"/></svg>