<svg xmlns="http://www.w3.org/2000/svg" xmlns:xlink="http://www.w3.org/1999/xlink" width="184" height="164" viewBox="0 0 184 164"><rect width="100%" height="100%" fill="#DDDDDD"/><path d="M44.36 88.73L47.61 88.73L47.61 91.04L37.61 91.04L37.61 88.73L41.27 88.73L41.27 78.19Q41.27 77.56 41.31 76.90L41.31 76.90L38.71 79.08Q38.49 79.25 38.27 79.29Q38.05 79.34 37.86 79.30Q37.66 79.26 37.51 79.17Q37.36 79.08 37.29 78.96L37.29 78.96L36.31 77.63L41.82 72.94L44.36 72.94L44.36 88.73ZM56.42 88.83L56.42 88.83Q57.19 88.83 57.76 88.61Q58.34 88.39 58.73 88.00Q59.13 87.61 59.32 87.08Q59.52 86.54 59.52 85.91L59.52 85.91Q59.52 84.43 58.70 83.66Q57.88 82.90 56.42 82.90L56.42 82.90Q54.97 82.90 54.15 83.66Q53.32 84.43 53.32 85.91L53.32 85.91Q53.32 86.54 53.52 87.08Q53.72 87.61 54.12 88.00Q54.51 88.39 55.09 88.61Q55.66 88.83 56.42 88.83ZM56.42 75.09L56.42 75.09Q55.74 75.09 55.24 75.30Q54.74 75.51 54.41 75.87Q54.07 76.23 53.92 76.69Q53.76 77.15 53.76 77.66L53.76 77.66Q53.76 78.20 53.89 78.71Q54.02 79.21 54.34 79.61Q54.65 80 55.16 80.24Q55.67 80.48 56.42 80.48L56.42 80.48Q57.17 80.48 57.69 80.24Q58.20 80 58.51 79.61Q58.82 79.21 58.96 78.71Q59.09 78.20 59.09 77.66L59.09 77.66Q59.09 77.15 58.92 76.69Q58.76 76.23 58.44 75.87Q58.11 75.51 57.61 75.30Q57.11 75.09 56.42 75.09ZM59.47 81.61L59.47 81.61Q61.13 82.15 61.91 83.26Q62.70 84.36 62.70 85.96L62.70 85.96Q62.70 87.16 62.24 88.14Q61.79 89.11 60.96 89.80Q60.14 90.49 58.98 90.86Q57.82 91.24 56.42 91.24L56.42 91.24Q55.02 91.24 53.87 90.86Q52.71 90.49 51.89 89.80Q51.06 89.11 50.61 88.14Q50.15 87.16 50.15 85.96L50.15 85.96Q50.15 84.36 50.94 83.26Q51.72 82.15 53.38 81.61L53.38 81.61Q52.06 81.06 51.41 80.05Q50.75 79.04 50.75 77.61L50.75 77.61Q50.75 76.59 51.17 75.70Q51.59 74.81 52.34 74.16Q53.09 73.50 54.13 73.13Q55.17 72.76 56.42 72.76L56.42 72.76Q57.67 72.76 58.72 73.13Q59.76 73.50 60.51 74.16Q61.26 74.81 61.68 75.70Q62.10 76.59 62.10 77.61L62.10 77.61Q62.10 79.04 61.44 80.05Q60.79 81.06 59.47 81.61ZM67.08 84.23L72.58 84.23L72.58 78.31Q72.58 77.48 72.69 76.46L72.69 76.46L67.08 84.23ZM75.26 84.23L77.54 84.23L77.54 86.01Q77.54 86.26 77.38 86.44Q77.21 86.63 76.91 86.63L76.91 86.63L75.26 86.63L75.26 91.04L72.58 91.04L72.58 86.63L64.95 86.63Q64.64 86.63 64.40 86.43Q64.16 86.24 64.10 85.95L64.10 85.95L63.77 84.39L72.34 72.95L75.26 72.95L75.26 84.23ZM97.40 86.90L95.76 88.51L91.53 84.28L87.25 88.54L85.61 86.93L89.89 82.64L85.81 78.56L87.44 76.94L91.51 81.01L95.56 76.96L97.21 78.59L93.15 82.65L97.40 86.90ZM114.51 88.73L117.76 88.73L117.76 91.04L107.76 91.04L107.76 88.73L111.42 88.73L111.42 78.19Q111.42 77.56 111.46 76.90L111.46 76.90L108.86 79.08Q108.64 79.25 108.42 79.29Q108.20 79.34 108.01 79.30Q107.81 79.26 107.66 79.17Q107.51 79.08 107.44 78.96L107.44 78.96L106.46 77.63L111.98 72.94L114.51 72.94L114.51 88.73ZM131.21 72.96L125.85 79.53L125.23 80.30Q125.75 80.04 126.36 79.89Q126.96 79.75 127.66 79.75L127.66 79.75Q128.69 79.75 129.66 80.09Q130.63 80.43 131.36 81.11Q132.10 81.79 132.55 82.80Q133 83.81 133 85.16L133 85.16Q133 86.43 132.54 87.53Q132.07 88.64 131.24 89.46Q130.40 90.29 129.22 90.76Q128.04 91.24 126.61 91.24L126.61 91.24Q125.16 91.24 124.01 90.78Q122.86 90.31 122.05 89.48Q121.24 88.65 120.81 87.48Q120.38 86.31 120.38 84.89L120.38 84.89Q120.38 83.61 120.89 82.27Q121.41 80.93 122.50 79.48L122.50 79.48L126.81 73.69Q127.04 73.39 127.47 73.18Q127.90 72.96 128.46 72.96L128.46 72.96L131.21 72.96ZM126.55 88.71L126.55 88.71Q127.29 88.71 127.91 88.46Q128.53 88.21 128.97 87.76Q129.41 87.31 129.66 86.71Q129.91 86.10 129.91 85.39L129.91 85.39Q129.91 84.61 129.68 83.99Q129.44 83.38 129 82.94Q128.56 82.51 127.95 82.29Q127.34 82.06 126.60 82.06L126.60 82.06Q125.86 82.06 125.26 82.31Q124.66 82.56 124.24 83.01Q123.81 83.45 123.58 84.06Q123.34 84.66 123.34 85.36L123.34 85.36Q123.34 86.11 123.54 86.73Q123.75 87.35 124.16 87.79Q124.56 88.23 125.16 88.47Q125.76 88.71 126.55 88.71ZM137.22 84.23L142.72 84.23L142.72 78.31Q142.72 77.48 142.84 76.46L142.84 76.46L137.22 84.23ZM145.41 84.23L147.69 84.23L147.69 86.01Q147.69 86.26 147.52 86.44Q147.36 86.63 147.06 86.63L147.06 86.63L145.41 86.63L145.41 91.04L142.72 91.04L142.72 86.63L135.10 86.63Q134.79 86.63 134.55 86.43Q134.31 86.24 134.25 85.95L134.25 85.95L133.92 84.39L142.49 72.95L145.41 72.95L145.41 84.23Z" fill="#999999"/></svg>