<svg xmlns="http://www.w3.org/2000/svg" xmlns:xlink="http://www.w3.org/1999/xlink" width="220" height="145" viewBox="0 0 220 145"><rect width="100%" height="100%" fill="#DDDDDD"/><path d="M49.26 80.14L55.01 80.14Q55.63 80.14 56.00 80.49Q56.36 80.84 56.36 81.41L56.36 81.41L56.36 83.71L40.99 83.71L40.99 82.44Q40.99 82.05 41.15 81.62Q41.31 81.20 41.67 80.85L41.67 80.85L48.47 74.03Q49.33 73.17 50.00 72.38Q50.67 71.59 51.12 70.81Q51.57 70.04 51.81 69.24Q52.05 68.44 52.05 67.56L52.05 67.56Q52.05 66.75 51.82 66.14Q51.59 65.53 51.16 65.11Q50.74 64.69 50.14 64.48Q49.54 64.27 48.80 64.27L48.80 64.27Q48.12 64.27 47.54 64.46Q46.95 64.66 46.50 65.01Q46.05 65.35 45.74 65.82Q45.43 66.28 45.28 66.84L45.28 66.84Q45.02 67.56 44.60 67.79Q44.18 68.02 43.39 67.90L43.39 67.90L41.37 67.54Q41.61 65.93 42.27 64.71Q42.94 63.49 43.94 62.68Q44.94 61.87 46.23 61.46Q47.53 61.05 49.02 61.05L49.02 61.05Q50.57 61.05 51.85 61.50Q53.14 61.96 54.05 62.80Q54.97 63.63 55.48 64.81Q55.99 65.99 55.99 67.43L55.99 67.43Q55.99 68.67 55.63 69.73Q55.26 70.78 54.65 71.74Q54.04 72.70 53.22 73.60Q52.39 74.50 51.50 75.43L51.50 75.43L46.44 80.59Q47.17 80.37 47.89 80.26Q48.61 80.14 49.26 80.14L49.26 80.14ZM67.24 80.14L72.99 80.14Q73.61 80.14 73.98 80.49Q74.34 80.84 74.34 81.41L74.34 81.41L74.34 83.71L58.97 83.71L58.97 82.44Q58.97 82.05 59.13 81.62Q59.29 81.20 59.65 80.85L59.65 80.85L66.45 74.03Q67.31 73.17 67.98 72.38Q68.65 71.59 69.10 70.81Q69.55 70.04 69.79 69.24Q70.03 68.44 70.03 67.56L70.03 67.56Q70.03 66.75 69.80 66.14Q69.57 65.53 69.14 65.11Q68.72 64.69 68.12 64.48Q67.52 64.27 66.78 64.27L66.78 64.27Q66.10 64.27 65.52 64.46Q64.93 64.66 64.48 65.01Q64.03 65.35 63.72 65.82Q63.41 66.28 63.26 66.84L63.26 66.84Q63.00 67.56 62.58 67.79Q62.16 68.02 61.37 67.90L61.37 67.90L59.35 67.54Q59.59 65.93 60.25 64.71Q60.92 63.49 61.92 62.68Q62.92 61.87 64.21 61.46Q65.51 61.05 67.00 61.05L67.00 61.05Q68.55 61.05 69.83 61.50Q71.12 61.96 72.03 62.80Q72.95 63.63 73.46 64.81Q73.97 65.99 73.97 67.43L73.97 67.43Q73.97 68.67 73.61 69.73Q73.24 70.78 72.63 71.74Q72.02 72.70 71.20 73.60Q70.37 74.50 69.48 75.43L69.48 75.43L64.42 80.59Q65.15 80.37 65.87 80.26Q66.59 80.14 67.24 80.14L67.24 80.14ZM92.97 72.50L92.97 72.50Q92.97 75.43 92.35 77.59Q91.72 79.75 90.61 81.16Q89.50 82.58 87.99 83.26Q86.48 83.95 84.73 83.95L84.73 83.95Q82.98 83.95 81.48 83.26Q79.98 82.58 78.88 81.16Q77.78 79.75 77.16 77.59Q76.54 75.43 76.54 72.50L76.54 72.50Q76.54 69.56 77.16 67.40Q77.78 65.25 78.88 63.84Q79.98 62.43 81.48 61.74Q82.98 61.05 84.73 61.05L84.73 61.05Q86.48 61.05 87.99 61.74Q89.50 62.43 90.61 63.84Q91.72 65.25 92.35 67.40Q92.97 69.56 92.97 72.50ZM89.02 72.50L89.02 72.50Q89.02 70.07 88.66 68.47Q88.31 66.87 87.71 65.93Q87.11 64.98 86.34 64.60Q85.56 64.22 84.73 64.22L84.73 64.22Q83.91 64.22 83.14 64.60Q82.37 64.98 81.78 65.93Q81.19 66.87 80.84 68.47Q80.50 70.07 80.50 72.50L80.50 72.50Q80.50 74.93 80.84 76.53Q81.19 78.13 81.78 79.07Q82.37 80.02 83.14 80.40Q83.91 80.78 84.73 80.78L84.73 80.78Q85.56 80.78 86.34 80.40Q87.11 80.02 87.71 79.07Q88.31 78.13 88.66 76.53Q89.02 74.93 89.02 72.50ZM117.59 78.58L115.56 80.58L110.30 75.32L105.00 80.61L102.97 78.61L108.27 73.29L103.22 68.24L105.23 66.22L110.29 71.28L115.31 66.25L117.35 68.27L112.32 73.31L117.59 78.58ZM138.81 80.84L142.84 80.84L142.84 83.71L130.44 83.71L130.44 80.84L134.98 80.84L134.98 67.77Q134.98 67.00 135.02 66.18L135.02 66.18L131.80 68.87Q131.52 69.09 131.25 69.14Q130.98 69.20 130.74 69.15Q130.50 69.11 130.31 68.99Q130.13 68.87 130.03 68.73L130.03 68.73L128.82 67.08L135.66 61.26L138.81 61.26L138.81 80.84ZM148.99 75.26L155.81 75.26L155.81 67.93Q155.81 66.89 155.95 65.63L155.95 65.63L148.99 75.26ZM159.14 75.26L161.96 75.26L161.96 77.48Q161.96 77.79 161.76 78.01Q161.56 78.23 161.19 78.23L161.19 78.23L159.14 78.23L159.14 83.71L155.81 83.71L155.81 78.23L146.36 78.23Q145.97 78.23 145.67 77.99Q145.38 77.75 145.30 77.40L145.30 77.40L144.90 75.46L155.52 61.28L159.14 61.28L159.14 75.26ZM169.84 64.77L169.05 69.43Q169.79 69.28 170.47 69.21Q171.16 69.14 171.79 69.14L171.79 69.14Q173.56 69.14 174.91 69.66Q176.25 70.19 177.17 71.12Q178.08 72.05 178.55 73.30Q179.01 74.55 179.01 75.99L179.01 75.99Q179.01 77.77 178.39 79.24Q177.76 80.72 176.64 81.76Q175.53 82.81 174.00 83.38Q172.47 83.95 170.67 83.95L170.67 83.95Q169.62 83.95 168.68 83.74Q167.73 83.52 166.90 83.16Q166.07 82.79 165.37 82.32Q164.66 81.85 164.10 81.32L164.10 81.32L165.28 79.69Q165.65 79.17 166.26 79.17L166.26 79.17Q166.64 79.17 167.05 79.41Q167.45 79.66 167.97 79.96Q168.49 80.25 169.19 80.50Q169.90 80.75 170.89 80.75L170.89 80.75Q171.95 80.75 172.75 80.41Q173.56 80.06 174.09 79.45Q174.63 78.84 174.90 77.99Q175.17 77.15 175.17 76.16L175.17 76.16Q175.17 74.33 174.11 73.30Q173.05 72.27 170.97 72.27L170.97 72.27Q169.37 72.27 167.70 72.86L167.70 72.86L165.31 72.17L167.17 61.29L178.24 61.29L178.24 62.92Q178.24 63.74 177.73 64.25Q177.22 64.77 175.99 64.77L175.99 64.77L169.84 64.77Z" fill="#999999"/></svg>