<svg xmlns="http://www.w3.org/2000/svg" xmlns:xlink="http://www.w3.org/1999/xlink" width="300" height="158" viewBox="0 0 300 158"><rect width="100%" height="100%" fill="#DDDDDD"/><path d="M61.81 72.91L59.14 72.44Q59.45 70.31 60.33 68.70Q61.21 67.09 62.54 66.01Q63.86 64.94 65.57 64.39Q67.28 63.85 69.25 63.85L69.25 63.85Q71.30 63.85 72.95 64.43Q74.60 65.02 75.77 66.05Q76.94 67.09 77.56 68.48Q78.19 69.88 78.19 71.50L78.19 71.50Q78.19 72.91 77.87 73.99Q77.55 75.06 76.96 75.86Q76.36 76.66 75.48 77.22Q74.60 77.77 73.49 78.14L73.49 78.14Q76.16 78.98 77.47 80.70Q78.78 82.42 78.78 85.03L78.78 85.03Q78.78 87.24 77.96 88.94Q77.14 90.64 75.75 91.80Q74.36 92.96 72.52 93.56Q70.69 94.15 68.64 94.15L68.64 94.15Q66.40 94.15 64.74 93.64Q63.08 93.12 61.85 92.12Q60.62 91.12 59.76 89.66Q58.90 88.20 58.28 86.30L58.28 86.30L60.52 85.38Q61.40 85.01 62.17 85.18Q62.94 85.36 63.28 86.01L63.28 86.01Q63.65 86.73 64.09 87.43Q64.54 88.12 65.15 88.67Q65.77 89.21 66.60 89.55Q67.43 89.89 68.57 89.89L68.57 89.89Q69.87 89.89 70.83 89.47Q71.79 89.05 72.44 88.37Q73.08 87.69 73.40 86.86Q73.72 86.03 73.72 85.19L73.72 85.19Q73.72 84.13 73.49 83.25Q73.27 82.38 72.55 81.77Q71.83 81.15 70.49 80.80Q69.15 80.46 66.89 80.46L66.89 80.46L66.89 76.85Q68.76 76.83 69.99 76.50Q71.22 76.17 71.95 75.59Q72.67 75.00 72.96 74.18Q73.25 73.36 73.25 72.38L73.25 72.38Q73.25 70.29 72.08 69.20Q70.91 68.11 68.96 68.11L68.96 68.11Q68.06 68.11 67.30 68.37Q66.54 68.63 65.94 69.09Q65.34 69.55 64.92 70.16Q64.52 70.78 64.31 71.52L64.31 71.52Q63.96 72.46 63.40 72.77Q62.83 73.08 61.81 72.91L61.81 72.91ZM103.47 79L103.47 79Q103.47 82.87 102.63 85.73Q101.80 88.59 100.34 90.46Q98.87 92.33 96.87 93.24Q94.88 94.15 92.56 94.15L92.56 94.15Q90.24 94.15 88.26 93.24Q86.29 92.33 84.83 90.46Q83.38 88.59 82.56 85.73Q81.74 82.87 81.74 79L81.74 79Q81.74 75.11 82.56 72.26Q83.38 69.41 84.83 67.54Q86.29 65.67 88.26 64.76Q90.24 63.85 92.56 63.85L92.56 63.85Q94.88 63.85 96.87 64.76Q98.87 65.67 100.34 67.54Q101.80 69.41 102.63 72.26Q103.47 75.11 103.47 79ZM98.24 79L98.24 79Q98.24 75.78 97.77 73.67Q97.29 71.56 96.51 70.31Q95.72 69.06 94.69 68.56Q93.67 68.05 92.56 68.05L92.56 68.05Q91.47 68.05 90.46 68.56Q89.44 69.06 88.66 70.31Q87.89 71.56 87.42 73.67Q86.96 75.78 86.96 79L86.96 79Q86.96 82.22 87.42 84.33Q87.89 86.44 88.66 87.69Q89.44 88.94 90.46 89.44Q91.47 89.95 92.56 89.95L92.56 89.95Q93.67 89.95 94.69 89.44Q95.72 88.94 96.51 87.69Q97.29 86.44 97.77 84.33Q98.24 82.22 98.24 79ZM127.25 79L127.25 79Q127.25 82.87 126.41 85.73Q125.58 88.59 124.12 90.46Q122.65 92.33 120.65 93.24Q118.66 94.15 116.34 94.15L116.34 94.15Q114.02 94.15 112.04 93.24Q110.07 92.33 108.61 90.46Q107.16 88.59 106.34 85.73Q105.52 82.87 105.52 79L105.52 79Q105.52 75.11 106.34 72.26Q107.16 69.41 108.61 67.54Q110.07 65.67 112.04 64.76Q114.02 63.85 116.34 63.85L116.34 63.85Q118.66 63.85 120.65 64.76Q122.65 65.67 124.12 67.54Q125.58 69.41 126.41 72.26Q127.25 75.11 127.25 79ZM122.02 79L122.02 79Q122.02 75.78 121.55 73.67Q121.07 71.56 120.29 70.31Q119.50 69.06 118.47 68.56Q117.45 68.05 116.34 68.05L116.34 68.05Q115.25 68.05 114.24 68.56Q113.22 69.06 112.44 70.31Q111.67 71.56 111.20 73.67Q110.74 75.78 110.74 79L110.74 79Q110.74 82.22 111.20 84.33Q111.67 86.44 112.44 87.69Q113.22 88.94 114.24 89.44Q115.25 89.95 116.34 89.95L116.34 89.95Q117.45 89.95 118.47 89.44Q119.50 88.94 120.29 87.69Q121.07 86.44 121.55 84.33Q122.02 82.22 122.02 79ZM159.80 87.04L157.11 89.68L150.16 82.73L143.15 89.72L140.47 87.08L147.48 80.05L140.80 73.36L143.46 70.70L150.14 77.38L156.79 70.74L159.49 73.40L152.83 80.07L159.80 87.04ZM187.86 90.03L193.19 90.03L193.19 93.82L176.79 93.82L176.79 90.03L182.80 90.03L182.80 72.75Q182.80 71.72 182.86 70.64L182.86 70.64L178.60 74.20Q178.23 74.49 177.87 74.56Q177.51 74.63 177.19 74.57Q176.88 74.51 176.63 74.36Q176.38 74.20 176.26 74.02L176.26 74.02L174.66 71.83L183.70 64.14L187.86 64.14L187.86 90.03ZM205.12 68.77L204.08 74.94Q205.06 74.74 205.97 74.64Q206.87 74.55 207.71 74.55L207.71 74.55Q210.04 74.55 211.83 75.25Q213.61 75.95 214.82 77.18Q216.03 78.41 216.65 80.06Q217.26 81.71 217.26 83.61L217.26 83.61Q217.26 85.97 216.43 87.92Q215.60 89.86 214.12 91.25Q212.65 92.63 210.63 93.39Q208.61 94.15 206.23 94.15L206.23 94.15Q204.84 94.15 203.59 93.86Q202.34 93.58 201.24 93.09Q200.14 92.61 199.21 91.99Q198.28 91.36 197.54 90.66L197.54 90.66L199.10 88.51Q199.59 87.81 200.39 87.81L200.39 87.81Q200.90 87.81 201.43 88.14Q201.97 88.47 202.65 88.86Q203.34 89.25 204.27 89.58Q205.21 89.91 206.52 89.91L206.52 89.91Q207.91 89.91 208.98 89.45Q210.04 89.00 210.75 88.19Q211.46 87.38 211.82 86.27Q212.18 85.15 212.18 83.84L212.18 83.84Q212.18 81.42 210.77 80.06Q209.37 78.69 206.62 78.69L206.62 78.69Q204.51 78.69 202.30 79.47L202.30 79.47L199.14 78.57L201.60 64.18L216.24 64.18L216.24 66.33Q216.24 67.42 215.56 68.09Q214.88 68.77 213.26 68.77L213.26 68.77L205.12 68.77ZM231.43 90.19L231.43 90.19Q232.68 90.19 233.62 89.83Q234.56 89.48 235.21 88.84Q235.85 88.20 236.18 87.32Q236.51 86.44 236.51 85.42L236.51 85.42Q236.51 82.98 235.16 81.73Q233.80 80.48 231.43 80.48L231.43 80.48Q229.05 80.48 227.69 81.73Q226.34 82.98 226.34 85.42L226.34 85.42Q226.34 86.44 226.67 87.32Q227.00 88.20 227.64 88.84Q228.29 89.48 229.23 89.83Q230.18 90.19 231.43 90.19ZM231.43 67.66L231.43 67.66Q230.30 67.66 229.48 68.01Q228.66 68.36 228.12 68.94Q227.57 69.53 227.32 70.29Q227.06 71.05 227.06 71.89L227.06 71.89Q227.06 72.77 227.27 73.60Q227.49 74.43 228.00 75.07Q228.52 75.72 229.36 76.11Q230.20 76.50 231.43 76.50L231.43 76.50Q232.66 76.50 233.50 76.11Q234.34 75.72 234.85 75.07Q235.36 74.43 235.58 73.60Q235.79 72.77 235.79 71.89L235.79 71.89Q235.79 71.05 235.53 70.29Q235.26 69.53 234.73 68.94Q234.19 68.36 233.37 68.01Q232.55 67.66 231.43 67.66ZM236.43 78.36L236.43 78.36Q239.13 79.25 240.43 81.06Q241.72 82.87 241.72 85.50L241.72 85.50Q241.72 87.47 240.97 89.07Q240.22 90.66 238.87 91.79Q237.51 92.92 235.62 93.53Q233.72 94.15 231.43 94.15L231.43 94.15Q229.13 94.15 227.23 93.53Q225.34 92.92 223.98 91.79Q222.63 90.66 221.88 89.07Q221.13 87.47 221.13 85.50L221.13 85.50Q221.13 82.87 222.43 81.06Q223.72 79.25 226.42 78.36L226.42 78.36Q224.27 77.46 223.20 75.80Q222.12 74.14 222.12 71.80L222.12 71.80Q222.12 70.12 222.81 68.67Q223.49 67.21 224.72 66.14Q225.95 65.06 227.66 64.46Q229.38 63.85 231.43 63.85L231.43 63.85Q233.48 63.85 235.19 64.46Q236.90 65.06 238.13 66.14Q239.36 67.21 240.05 68.67Q240.73 70.12 240.73 71.80L240.73 71.80Q240.73 74.14 239.66 75.80Q238.58 77.46 236.43 78.36Z" fill="#999999"/></svg>