<svg width="17" height="16" viewBox="0 0 17 16" fill="none" xmlns="http://www.w3.org/2000/svg">
<path fill-rule="evenodd" clip-rule="evenodd" d="M13.458 11.3158L17 14.6033L15.586 15.9156L12.044 12.6282C10.782 13.522 9.21 14.0594 7.5 14.0594C3.35786 14.0594 0 10.9429 0 7.09844C0 3.25402 3.35786 0.137501 7.5 0.137501C11.6421 0.137501 15 3.25402 15 7.09844C15.0001 8.62343 14.4581 10.1059 13.458 11.3158ZM7.5 1.99375C4.467 1.99375 2 4.28344 2 7.09844C2.00331 9.91641 4.4638 12.2001 7.5 12.2031C10.532 12.2031 13 9.91251 13 7.09844C13 4.28344 10.532 1.99375 7.5 1.99375Z" fill="white"/>
</svg>
