<svg width="108" height="17" viewBox="0 0 108 17" fill="none" xmlns="http://www.w3.org/2000/svg">
<path fill-rule="evenodd" clip-rule="evenodd" d="M103.847 2.60494V16.3331H101.734V2.60494H97.9779V1.07959H107.604V2.60494H103.847ZM95.7123 10.6784C95.3444 11.107 94.8827 11.412 94.3271 11.5936C93.7714 11.7752 93.1101 11.866 92.3431 11.866C91.9831 11.866 91.5762 11.8442 91.1223 11.8006C90.6684 11.7571 90.2927 11.7062 89.9953 11.6481V16.3331H87.8823V1.29749C88.4771 1.1377 89.0757 1.02511 89.6784 0.959737C90.281 0.894365 90.9344 0.861679 91.6388 0.861679C92.5779 0.861679 93.3762 0.952474 94.0336 1.13406C94.691 1.31565 95.2231 1.61709 95.6301 2.03838C96.0371 2.45967 96.3344 3.01896 96.5223 3.71627C96.7101 4.41357 96.804 5.27794 96.804 6.30937C96.804 7.36985 96.714 8.25601 96.534 8.96784C96.354 9.67967 96.0801 10.2499 95.7123 10.6784ZM94.5149 4.3482C94.3975 3.82522 94.2136 3.4112 93.9631 3.10613C93.7127 2.80106 93.3957 2.58678 93.0123 2.4633C92.6288 2.33982 92.171 2.27808 91.6388 2.27808H89.9953V10.3407H91.6388C92.171 10.3407 92.6288 10.2789 93.0123 10.1554C93.3957 10.032 93.7127 9.81768 93.9631 9.51261C94.2136 9.20754 94.3975 8.79352 94.5149 8.27054C94.6323 7.74756 94.691 7.09384 94.691 6.30937C94.691 5.5249 94.6323 4.87118 94.5149 4.3482ZM82.5997 12.4108H77.904L76.8475 16.3331H74.7344L78.7257 1.07959H81.7779L85.7692 16.3331H83.6562L82.5997 12.4108ZM80.2988 3.25866H80.2049L78.2562 10.8854H82.2475L80.2988 3.25866ZM70.1562 5.00192H70.0388L66.6344 14.3719H64.5214L61.117 5.00192H60.9997L60.2953 16.3331H58.1823L59.1214 1.07959H61.704L65.531 11.5391H65.6249L69.4518 1.07959H72.0344L72.9736 16.3331H70.8605L70.1562 5.00192ZM54.3788 14.9167C53.9405 15.5123 53.4123 15.9336 52.794 16.1806C52.1757 16.4275 51.4675 16.551 50.6692 16.551C49.871 16.551 49.1627 16.4275 48.5444 16.1806C47.9262 15.9336 47.3979 15.5123 46.9597 14.9167C46.5214 14.3211 46.1888 13.5185 45.9618 12.5088C45.7349 11.4992 45.6214 10.2317 45.6214 8.70635C45.6214 7.181 45.7349 5.9135 45.9618 4.90386C46.1888 3.89423 46.5214 3.0916 46.9597 2.49599C47.3979 1.90037 47.9262 1.47908 48.5444 1.23212C49.1627 0.98516 49.871 0.861679 50.6692 0.861679C51.4675 0.861679 52.1757 0.98516 52.794 1.23212C53.4123 1.47908 53.9405 1.90037 54.3788 2.49599C54.8171 3.0916 55.1497 3.89423 55.3766 4.90386C55.6036 5.9135 55.7171 7.181 55.7171 8.70635C55.7171 10.2317 55.6036 11.4992 55.3766 12.5088C55.1497 13.5185 54.8171 14.3211 54.3788 14.9167ZM53.3575 5.48132C53.1931 4.63874 52.9779 3.97049 52.7118 3.47657C52.4457 2.98265 52.1327 2.64126 51.7727 2.4524C51.4127 2.26355 51.0449 2.16912 50.6692 2.16912C50.2936 2.16912 49.9257 2.26355 49.5657 2.4524C49.2057 2.64126 48.8927 2.98265 48.6266 3.47657C48.3605 3.97049 48.1453 4.63874 47.981 5.48132C47.8166 6.3239 47.7344 7.39891 47.7344 8.70635C47.7344 10.0138 47.8166 11.0888 47.981 11.9314C48.1453 12.774 48.3605 13.4422 48.6266 13.9361C48.8927 14.4301 49.2057 14.7714 49.5657 14.9603C49.9257 15.1492 50.2936 15.2436 50.6692 15.2436C51.0449 15.2436 51.4127 15.1492 51.7727 14.9603C52.1327 14.7714 52.4457 14.4301 52.7118 13.9361C52.9779 13.4422 53.1931 12.774 53.3575 11.9314C53.5218 11.0888 53.604 10.0138 53.604 8.70635C53.604 7.39891 53.5218 6.3239 53.3575 5.48132ZM40.691 9.36007H35.7605V16.3331H33.6475V1.07959H35.7605V7.83472H40.691V1.07959H42.804V16.3331H40.691V9.36007ZM29.5396 16.3331L26.6048 9.79589L23.67 16.3331H21.557L25.0787 8.48844L21.9091 1.07959H24.0222L26.6048 7.181L29.1874 1.07959H31.3004L28.1309 8.48844L31.6526 16.3331H29.5396ZM12.283 1.07959H20.2657V2.60494H14.3961V7.61681H19.5613V9.14217H14.3961V14.8078H20.2657V16.3331H12.283V1.07959ZM6.64827 16.3331H4.53522V2.60494H0.778702V1.07959H10.4048V2.60494H6.64827V16.3331Z" fill="white"/>
</svg>
